<?xml version="1.0" encoding="utf-8"?>
<!-- Generator: Adobe Illustrator 25.0.0, SVG Export Plug-In . SVG Version: 6.00 Build 0)  -->
<svg version="1.1" xmlns="http://www.w3.org/2000/svg" xmlns:xlink="http://www.w3.org/1999/xlink" x="0px" y="0px"
	 viewBox="0 0 887.9 569.7" style="enable-background:new 0 0 887.9 569.7;" xml:space="preserve">
<style type="text/css">
	.st0{fill:#418FBF;}
	.st1{fill:#FFFFFF;}
	.st2{fill:#E6E6E6;}
	.st3{fill:#CCCCCC;}
</style>
<g id="Layer_3">
	<rect x="33.5" y="50.2" class="st0" width="822" height="470.7"/>
</g>
<g id="Layer_2">
	<rect x="165.2" y="116.5" class="st1" width="7.7" height="12.3"/>
	<rect x="191.4" y="113.4" class="st1" width="7.7" height="12.3"/>
	<rect x="205.3" y="113.4" class="st1" width="7.7" height="12.3"/>
	<rect x="205.3" y="150.5" class="st1" width="7.7" height="12.3"/>
	<rect x="220.7" y="132" class="st1" width="7.7" height="12.3"/>
	<rect x="220.7" y="152" class="st1" width="7.7" height="12.3"/>
	<rect x="205.3" y="190.6" class="st1" width="7.7" height="12.3"/>
	<rect x="220.7" y="210.7" class="st1" width="7.7" height="12.3"/>
	<rect x="205.3" y="286.3" class="st1" width="7.7" height="12.3"/>
	<rect x="191.4" y="210.7" class="st1" width="7.7" height="12.3"/>
	<rect x="165.2" y="136.6" class="st1" width="7.7" height="12.3"/>
	<rect x="165.2" y="329.5" class="st1" width="7.7" height="12.3"/>
	<rect x="165.2" y="369.6" class="st1" width="7.7" height="12.3"/>
	<rect x="165.2" y="389.7" class="st1" width="7.7" height="12.3"/>
	<rect x="162.1" y="158.2" class="st1" width="10.8" height="1.5"/>
	<rect x="203.8" y="176.7" class="st1" width="10.8" height="1.5"/>
	<rect x="162.1" y="257" class="st1" width="10.8" height="1.5"/>
	<rect x="162.1" y="273.9" class="st1" width="10.8" height="1.5"/>
	<rect x="203.8" y="372.7" class="st1" width="10.8" height="1.5"/>
	<rect x="191.4" y="409.7" class="st1" width="10.8" height="1.5"/>
	<polygon class="st1" points="165.2,172.1 165.2,175.2 168.3,175.2 168.3,181.3 165.2,181.3 165.2,184.4 172.9,184.4 172.9,172.1 	
		"/>
	<polygon class="st1" points="191.4,150.5 191.4,153.6 194.5,153.6 194.5,159.7 191.4,159.7 191.4,162.8 199.1,162.8 199.1,150.5 	
		"/>
	<polygon class="st1" points="220.7,170.5 220.7,173.6 223.8,173.6 223.8,179.8 220.7,179.8 220.7,182.9 228.5,182.9 228.5,170.5 	
		"/>
	<polygon class="st1" points="220.7,230.7 220.7,233.8 223.8,233.8 223.8,240 220.7,240 220.7,243.1 228.5,243.1 228.5,230.7 	"/>
	<polygon class="st1" points="220.7,250.8 220.7,253.9 223.8,253.9 223.8,260 220.7,260 220.7,263.1 228.5,263.1 228.5,250.8 	"/>
	<polygon class="st1" points="220.7,189 220.7,192.1 223.8,192.1 223.8,198.3 220.7,198.3 220.7,201.4 228.5,201.4 228.5,189 	"/>
	<polygon class="st1" points="205.3,132 205.3,135 208.4,135 208.4,141.2 205.3,141.2 205.3,144.3 213,144.3 213,132 	"/>
	<rect x="205.3" y="230.7" class="st1" width="7.7" height="12.3"/>
	<rect x="205.3" y="267.8" class="st1" width="7.7" height="12.3"/>
	<polygon class="st1" points="205.3,249.2 205.3,252.3 208.4,252.3 208.4,258.5 205.3,258.5 205.3,261.6 213,261.6 213,249.2 	"/>
	<polygon class="st1" points="191.4,170.5 191.4,173.6 194.5,173.6 194.5,179.8 191.4,179.8 191.4,182.9 199.1,182.9 199.1,170.5 	
		"/>
	<polygon class="st1" points="191.4,190.6 191.4,193.7 194.5,193.7 194.5,199.9 191.4,199.9 191.4,202.9 199.1,202.9 199.1,190.6 	
		"/>
	<rect x="191.4" y="250.8" class="st1" width="7.7" height="12.3"/>
	<polygon class="st1" points="191.4,230.7 191.4,233.8 194.5,233.8 194.5,240 191.4,240 191.4,243.1 199.1,243.1 199.1,230.7 	"/>
	<rect x="191.4" y="290.9" class="st1" width="7.7" height="12.3"/>
	<polygon class="st1" points="191.4,270.8 191.4,273.9 194.5,273.9 194.5,280.1 191.4,280.1 191.4,283.2 199.1,283.2 199.1,270.8 	
		"/>
	<rect x="191.4" y="331" class="st1" width="7.7" height="12.3"/>
	<rect x="205.3" y="327.9" class="st1" width="7.7" height="12.3"/>
	<polygon class="st1" points="191.4,311 191.4,314 194.5,314 194.5,320.2 191.4,320.2 191.4,323.3 199.1,323.3 199.1,311 	"/>
	<polygon class="st1" points="220.7,311 220.7,314 223.8,314 223.8,320.2 220.7,320.2 220.7,323.3 228.5,323.3 228.5,311 	"/>
	<rect x="299.4" y="132" class="st1" width="7.7" height="12.3"/>
	<rect x="299.4" y="152" class="st1" width="7.7" height="12.3"/>
	<rect x="299.4" y="210.7" class="st1" width="7.7" height="12.3"/>
	<polygon class="st1" points="299.4,170.5 299.4,173.6 302.5,173.6 302.5,179.8 299.4,179.8 299.4,182.9 307.2,182.9 307.2,170.5 	
		"/>
	<polygon class="st1" points="299.4,230.7 299.4,233.8 302.5,233.8 302.5,240 299.4,240 299.4,243.1 307.2,243.1 307.2,230.7 	"/>
	<polygon class="st1" points="299.4,250.8 299.4,253.9 302.5,253.9 302.5,260 299.4,260 299.4,263.1 307.2,263.1 307.2,250.8 	"/>
	<polygon class="st1" points="299.4,189 299.4,192.1 302.5,192.1 302.5,198.3 299.4,198.3 299.4,201.4 307.2,201.4 307.2,189 	"/>
	<polygon class="st1" points="299.4,311 299.4,314 302.5,314 302.5,320.2 299.4,320.2 299.4,323.3 307.2,323.3 307.2,311 	"/>
	<rect x="191.4" y="371.1" class="st1" width="7.7" height="12.3"/>
	<rect x="205.3" y="348" class="st1" width="7.7" height="12.3"/>
	<rect x="191.4" y="423.6" class="st1" width="7.7" height="12.3"/>
	<rect x="205.3" y="386.6" class="st1" width="7.7" height="12.3"/>
	<polygon class="st1" points="191.4,351.1 191.4,354.2 194.5,354.2 194.5,360.3 191.4,360.3 191.4,363.4 199.1,363.4 199.1,351.1 	
		"/>
	<polygon class="st1" points="191.4,445.2 191.4,448.3 194.5,448.3 194.5,454.5 191.4,454.5 191.4,457.6 199.1,457.6 199.1,445.2 	
		"/>
	<rect x="276.3" y="113.4" class="st1" width="7.7" height="12.3"/>
	<rect x="276.3" y="210.7" class="st1" width="7.7" height="12.3"/>
	<rect x="276.3" y="409.7" class="st1" width="10.8" height="1.5"/>
	<polygon class="st1" points="276.3,150.5 276.3,153.6 279.4,153.6 279.4,159.7 276.3,159.7 276.3,162.8 284,162.8 284,150.5 	"/>
	<polygon class="st1" points="276.3,170.5 276.3,173.6 279.4,173.6 279.4,179.8 276.3,179.8 276.3,182.9 284,182.9 284,170.5 	"/>
	<polygon class="st1" points="276.3,190.6 276.3,193.7 279.4,193.7 279.4,199.9 276.3,199.9 276.3,202.9 284,202.9 284,190.6 	"/>
	<rect x="276.3" y="250.8" class="st1" width="7.7" height="12.3"/>
	<polygon class="st1" points="276.3,230.7 276.3,233.8 279.4,233.8 279.4,240 276.3,240 276.3,243.1 284,243.1 284,230.7 	"/>
	<rect x="276.3" y="290.9" class="st1" width="7.7" height="12.3"/>
	<polygon class="st1" points="276.3,270.8 276.3,273.9 279.4,273.9 279.4,280.1 276.3,280.1 276.3,283.2 284,283.2 284,270.8 	"/>
	<rect x="276.3" y="331" class="st1" width="7.7" height="12.3"/>
	<polygon class="st1" points="276.3,311 276.3,314 279.4,314 279.4,320.2 276.3,320.2 276.3,323.3 284,323.3 284,311 	"/>
	<rect x="276.3" y="371.1" class="st1" width="7.7" height="12.3"/>
	<rect x="276.3" y="423.6" class="st1" width="7.7" height="12.3"/>
	<polygon class="st1" points="276.3,351.1 276.3,354.2 279.4,354.2 279.4,360.3 276.3,360.3 276.3,363.4 284,363.4 284,351.1 	"/>
	<polygon class="st1" points="276.3,445.2 276.3,448.3 279.4,448.3 279.4,454.5 276.3,454.5 276.3,457.6 284,457.6 284,445.2 	"/>
	<rect x="313.3" y="113.4" class="st1" width="7.7" height="12.3"/>
	<rect x="313.3" y="210.7" class="st1" width="7.7" height="12.3"/>
	<rect x="313.3" y="409.7" class="st1" width="10.8" height="1.5"/>
	<polygon class="st1" points="313.3,150.5 313.3,153.6 316.4,153.6 316.4,159.7 313.3,159.7 313.3,162.8 321,162.8 321,150.5 	"/>
	<polygon class="st1" points="313.3,170.5 313.3,173.6 316.4,173.6 316.4,179.8 313.3,179.8 313.3,182.9 321,182.9 321,170.5 	"/>
	<polygon class="st1" points="313.3,190.6 313.3,193.7 316.4,193.7 316.4,199.9 313.3,199.9 313.3,202.9 321,202.9 321,190.6 	"/>
	<rect x="313.3" y="250.8" class="st1" width="7.7" height="12.3"/>
	<polygon class="st1" points="313.3,230.7 313.3,233.8 316.4,233.8 316.4,240 313.3,240 313.3,243.1 321,243.1 321,230.7 	"/>
	<rect x="313.3" y="290.9" class="st1" width="7.7" height="12.3"/>
	<polygon class="st1" points="313.3,270.8 313.3,273.9 316.4,273.9 316.4,280.1 313.3,280.1 313.3,283.2 321,283.2 321,270.8 	"/>
	<rect x="313.3" y="331" class="st1" width="7.7" height="12.3"/>
	<polygon class="st1" points="313.3,311 313.3,314 316.4,314 316.4,320.2 313.3,320.2 313.3,323.3 321,323.3 321,311 	"/>
	<rect x="313.3" y="371.1" class="st1" width="7.7" height="12.3"/>
	<rect x="313.3" y="423.6" class="st1" width="7.7" height="12.3"/>
	<polygon class="st1" points="313.3,351.1 313.3,354.2 316.4,354.2 316.4,360.3 313.3,360.3 313.3,363.4 321,363.4 321,351.1 	"/>
	<polygon class="st1" points="313.3,445.2 313.3,448.3 316.4,448.3 316.4,454.5 313.3,454.5 313.3,457.6 321,457.6 321,445.2 	"/>
	<polygon class="st1" points="205.3,423.6 205.3,426.7 208.4,426.7 208.4,432.9 205.3,432.9 205.3,436 213,436 213,423.6 	"/>
	<polygon class="st1" points="205.3,443.7 205.3,446.8 208.4,446.8 208.4,452.9 205.3,452.9 205.3,456 213,456 213,443.7 	"/>
	<polygon class="st1" points="165.2,210.7 165.2,213.7 168.3,213.7 168.3,219.9 165.2,219.9 165.2,223 172.9,223 172.9,210.7 	"/>
	<polygon class="st1" points="165.2,289.4 165.2,292.4 168.3,292.4 168.3,298.6 165.2,298.6 165.2,301.7 172.9,301.7 172.9,289.4 	
		"/>
	<polygon class="st1" points="165.2,309.4 165.2,312.5 168.3,312.5 168.3,318.7 165.2,318.7 165.2,321.8 172.9,321.8 172.9,309.4 	
		"/>
	<polygon class="st1" points="165.2,349.5 165.2,352.6 168.3,352.6 168.3,358.8 165.2,358.8 165.2,361.9 172.9,361.9 172.9,349.5 	
		"/>
	<polygon class="st1" points="165.2,406.6 165.2,409.7 168.3,409.7 168.3,415.9 165.2,415.9 165.2,419 172.9,419 172.9,406.6 	"/>
	<polygon class="st1" points="165.2,423.6 165.2,426.7 168.3,426.7 168.3,432.9 165.2,432.9 165.2,436 172.9,436 172.9,423.6 	"/>
	<rect x="245.4" y="116.5" class="st1" width="7.7" height="12.3"/>
	<rect x="245.4" y="136.6" class="st1" width="7.7" height="12.3"/>
	<rect x="242.3" y="158.2" class="st1" width="10.8" height="1.5"/>
	<rect x="242.3" y="257" class="st1" width="10.8" height="1.5"/>
	<rect x="242.3" y="273.9" class="st1" width="10.8" height="1.5"/>
	<polygon class="st1" points="245.4,172.1 245.4,175.2 248.5,175.2 248.5,181.3 245.4,181.3 245.4,184.4 253.1,184.4 253.1,172.1 	
		"/>
	<polygon class="st1" points="245.4,210.7 245.4,213.7 248.5,213.7 248.5,219.9 245.4,219.9 245.4,223 253.1,223 253.1,210.7 	"/>
	<polygon class="st1" points="245.4,289.4 245.4,292.4 248.5,292.4 248.5,298.6 245.4,298.6 245.4,301.7 253.1,301.7 253.1,289.4 	
		"/>
	<rect x="333.4" y="250.8" class="st1" width="7.7" height="12.3"/>
	<rect x="333.4" y="270.8" class="st1" width="7.7" height="12.3"/>
	<rect x="330.3" y="292.4" class="st1" width="10.8" height="1.5"/>
	<rect x="330.3" y="391.2" class="st1" width="10.8" height="1.5"/>
	<rect x="330.3" y="408.2" class="st1" width="10.8" height="1.5"/>
	<polygon class="st1" points="333.4,306.3 333.4,309.4 336.5,309.4 336.5,315.6 333.4,315.6 333.4,318.7 341.1,318.7 341.1,306.3 	
		"/>
	<polygon class="st1" points="333.4,344.9 333.4,348 336.5,348 336.5,354.2 333.4,354.2 333.4,357.3 341.1,357.3 341.1,344.9 	"/>
	<polygon class="st1" points="333.4,423.6 333.4,426.7 336.5,426.7 336.5,432.9 333.4,432.9 333.4,436 341.1,436 341.1,423.6 	"/>
	<rect x="358.1" y="116.5" class="st1" width="7.7" height="12.3"/>
	<rect x="384.3" y="113.4" class="st1" width="7.7" height="12.3"/>
	<rect x="398.2" y="113.4" class="st1" width="7.7" height="12.3"/>
	<rect x="398.2" y="150.5" class="st1" width="7.7" height="12.3"/>
	<rect x="413.6" y="132" class="st1" width="7.7" height="12.3"/>
	<rect x="413.6" y="152" class="st1" width="7.7" height="12.3"/>
	<rect x="398.2" y="190.6" class="st1" width="7.7" height="12.3"/>
	<rect x="413.6" y="210.7" class="st1" width="7.7" height="12.3"/>
	<rect x="398.2" y="286.3" class="st1" width="7.7" height="12.3"/>
	<rect x="384.3" y="210.7" class="st1" width="7.7" height="12.3"/>
	<rect x="358.1" y="136.6" class="st1" width="7.7" height="12.3"/>
	<rect x="358.1" y="329.5" class="st1" width="7.7" height="12.3"/>
	<rect x="358.1" y="369.6" class="st1" width="7.7" height="12.3"/>
	<rect x="358.1" y="389.7" class="st1" width="7.7" height="12.3"/>
	<rect x="355" y="158.2" class="st1" width="10.8" height="1.5"/>
	<rect x="396.7" y="176.7" class="st1" width="10.8" height="1.5"/>
	<rect x="355" y="257" class="st1" width="10.8" height="1.5"/>
	<rect x="355" y="273.9" class="st1" width="10.8" height="1.5"/>
	<rect x="396.7" y="372.7" class="st1" width="10.8" height="1.5"/>
	<rect x="384.3" y="409.7" class="st1" width="10.8" height="1.5"/>
	<polygon class="st1" points="358.1,172.1 358.1,175.2 361.2,175.2 361.2,181.3 358.1,181.3 358.1,184.4 365.8,184.4 365.8,172.1 	
		"/>
	<polygon class="st1" points="384.3,150.5 384.3,153.6 387.4,153.6 387.4,159.7 384.3,159.7 384.3,162.8 392,162.8 392,150.5 	"/>
	<polygon class="st1" points="413.6,170.5 413.6,173.6 416.7,173.6 416.7,179.8 413.6,179.8 413.6,182.9 421.4,182.9 421.4,170.5 	
		"/>
	<polygon class="st1" points="413.6,230.7 413.6,233.8 416.7,233.8 416.7,240 413.6,240 413.6,243.1 421.4,243.1 421.4,230.7 	"/>
	<polygon class="st1" points="413.6,250.8 413.6,253.9 416.7,253.9 416.7,260 413.6,260 413.6,263.1 421.4,263.1 421.4,250.8 	"/>
	<polygon class="st1" points="413.6,189 413.6,192.1 416.7,192.1 416.7,198.3 413.6,198.3 413.6,201.4 421.4,201.4 421.4,189 	"/>
	<polygon class="st1" points="398.2,132 398.2,135 401.3,135 401.3,141.2 398.2,141.2 398.2,144.3 405.9,144.3 405.9,132 	"/>
	<rect x="398.2" y="230.7" class="st1" width="7.7" height="12.3"/>
	<rect x="398.2" y="267.8" class="st1" width="7.7" height="12.3"/>
	<polygon class="st1" points="398.2,249.2 398.2,252.3 401.3,252.3 401.3,258.5 398.2,258.5 398.2,261.6 405.9,261.6 405.9,249.2 	
		"/>
	<polygon class="st1" points="384.3,170.5 384.3,173.6 387.4,173.6 387.4,179.8 384.3,179.8 384.3,182.9 392,182.9 392,170.5 	"/>
	<polygon class="st1" points="384.3,190.6 384.3,193.7 387.4,193.7 387.4,199.9 384.3,199.9 384.3,202.9 392,202.9 392,190.6 	"/>
	<rect x="384.3" y="250.8" class="st1" width="7.7" height="12.3"/>
	<polygon class="st1" points="384.3,230.7 384.3,233.8 387.4,233.8 387.4,240 384.3,240 384.3,243.1 392,243.1 392,230.7 	"/>
	<rect x="384.3" y="290.9" class="st1" width="7.7" height="12.3"/>
	<polygon class="st1" points="384.3,270.8 384.3,273.9 387.4,273.9 387.4,280.1 384.3,280.1 384.3,283.2 392,283.2 392,270.8 	"/>
	<rect x="384.3" y="331" class="st1" width="7.7" height="12.3"/>
	<rect x="398.2" y="327.9" class="st1" width="7.7" height="12.3"/>
	<polygon class="st1" points="384.3,311 384.3,314 387.4,314 387.4,320.2 384.3,320.2 384.3,323.3 392,323.3 392,311 	"/>
	<polygon class="st1" points="413.6,311 413.6,314 416.7,314 416.7,320.2 413.6,320.2 413.6,323.3 421.4,323.3 421.4,311 	"/>
	<rect x="492.3" y="132" class="st1" width="7.7" height="12.3"/>
	<rect x="492.3" y="152" class="st1" width="7.7" height="12.3"/>
	<rect x="492.3" y="210.7" class="st1" width="7.7" height="12.3"/>
	<polygon class="st1" points="492.3,170.5 492.3,173.6 495.4,173.6 495.4,179.8 492.3,179.8 492.3,182.9 500.1,182.9 500.1,170.5 	
		"/>
	<polygon class="st1" points="492.3,230.7 492.3,233.8 495.4,233.8 495.4,240 492.3,240 492.3,243.1 500.1,243.1 500.1,230.7 	"/>
	<polygon class="st1" points="492.3,250.8 492.3,253.9 495.4,253.9 495.4,260 492.3,260 492.3,263.1 500.1,263.1 500.1,250.8 	"/>
	<polygon class="st1" points="492.3,189 492.3,192.1 495.4,192.1 495.4,198.3 492.3,198.3 492.3,201.4 500.1,201.4 500.1,189 	"/>
	<polygon class="st1" points="492.3,311 492.3,314 495.4,314 495.4,320.2 492.3,320.2 492.3,323.3 500.1,323.3 500.1,311 	"/>
	<rect x="384.3" y="371.1" class="st1" width="7.7" height="12.3"/>
	<rect x="398.2" y="348" class="st1" width="7.7" height="12.3"/>
	<rect x="384.3" y="423.6" class="st1" width="7.7" height="12.3"/>
	<rect x="398.2" y="386.6" class="st1" width="7.7" height="12.3"/>
	<polygon class="st1" points="384.3,351.1 384.3,354.2 387.4,354.2 387.4,360.3 384.3,360.3 384.3,363.4 392,363.4 392,351.1 	"/>
	<polygon class="st1" points="384.3,445.2 384.3,448.3 387.4,448.3 387.4,454.5 384.3,454.5 384.3,457.6 392,457.6 392,445.2 	"/>
	<rect x="469.2" y="113.4" class="st1" width="7.7" height="12.3"/>
	<rect x="469.2" y="210.7" class="st1" width="7.7" height="12.3"/>
	<rect x="469.2" y="409.7" class="st1" width="10.8" height="1.5"/>
	<polygon class="st1" points="469.2,150.5 469.2,153.6 472.3,153.6 472.3,159.7 469.2,159.7 469.2,162.8 476.9,162.8 476.9,150.5 	
		"/>
	<polygon class="st1" points="469.2,170.5 469.2,173.6 472.3,173.6 472.3,179.8 469.2,179.8 469.2,182.9 476.9,182.9 476.9,170.5 	
		"/>
	<polygon class="st1" points="469.2,190.6 469.2,193.7 472.3,193.7 472.3,199.9 469.2,199.9 469.2,202.9 476.9,202.9 476.9,190.6 	
		"/>
	<rect x="469.2" y="250.8" class="st1" width="7.7" height="12.3"/>
	<polygon class="st1" points="469.2,230.7 469.2,233.8 472.3,233.8 472.3,240 469.2,240 469.2,243.1 476.9,243.1 476.9,230.7 	"/>
	<rect x="469.2" y="290.9" class="st1" width="7.7" height="12.3"/>
	<polygon class="st1" points="469.2,270.8 469.2,273.9 472.3,273.9 472.3,280.1 469.2,280.1 469.2,283.2 476.9,283.2 476.9,270.8 	
		"/>
	<rect x="469.2" y="331" class="st1" width="7.7" height="12.3"/>
	<polygon class="st1" points="469.2,311 469.2,314 472.3,314 472.3,320.2 469.2,320.2 469.2,323.3 476.9,323.3 476.9,311 	"/>
	<rect x="469.2" y="371.1" class="st1" width="7.7" height="12.3"/>
	<rect x="469.2" y="423.6" class="st1" width="7.7" height="12.3"/>
	<polygon class="st1" points="469.2,351.1 469.2,354.2 472.3,354.2 472.3,360.3 469.2,360.3 469.2,363.4 476.9,363.4 476.9,351.1 	
		"/>
	<polygon class="st1" points="469.2,445.2 469.2,448.3 472.3,448.3 472.3,454.5 469.2,454.5 469.2,457.6 476.9,457.6 476.9,445.2 	
		"/>
	<rect x="506.2" y="113.4" class="st1" width="7.7" height="12.3"/>
	<rect x="506.2" y="210.7" class="st1" width="7.7" height="12.3"/>
	<rect x="506.2" y="409.7" class="st1" width="10.8" height="1.5"/>
	<polygon class="st1" points="506.2,150.5 506.2,153.6 509.3,153.6 509.3,159.7 506.2,159.7 506.2,162.8 513.9,162.8 513.9,150.5 	
		"/>
	<polygon class="st1" points="506.2,170.5 506.2,173.6 509.3,173.6 509.3,179.8 506.2,179.8 506.2,182.9 513.9,182.9 513.9,170.5 	
		"/>
	<polygon class="st1" points="506.2,190.6 506.2,193.7 509.3,193.7 509.3,199.9 506.2,199.9 506.2,202.9 513.9,202.9 513.9,190.6 	
		"/>
	<rect x="506.2" y="250.8" class="st1" width="7.7" height="12.3"/>
	<polygon class="st1" points="506.2,230.7 506.2,233.8 509.3,233.8 509.3,240 506.2,240 506.2,243.1 513.9,243.1 513.9,230.7 	"/>
	<rect x="506.2" y="290.9" class="st1" width="7.7" height="12.3"/>
	<polygon class="st1" points="506.2,270.8 506.2,273.9 509.3,273.9 509.3,280.1 506.2,280.1 506.2,283.2 513.9,283.2 513.9,270.8 	
		"/>
	<rect x="506.2" y="331" class="st1" width="7.7" height="12.3"/>
	<polygon class="st1" points="506.2,311 506.2,314 509.3,314 509.3,320.2 506.2,320.2 506.2,323.3 513.9,323.3 513.9,311 	"/>
	<rect x="506.2" y="371.1" class="st1" width="7.7" height="12.3"/>
	<rect x="506.2" y="423.6" class="st1" width="7.7" height="12.3"/>
	<polygon class="st1" points="506.2,351.1 506.2,354.2 509.3,354.2 509.3,360.3 506.2,360.3 506.2,363.4 513.9,363.4 513.9,351.1 	
		"/>
	<polygon class="st1" points="506.2,445.2 506.2,448.3 509.3,448.3 509.3,454.5 506.2,454.5 506.2,457.6 513.9,457.6 513.9,445.2 	
		"/>
	<polygon class="st1" points="398.2,423.6 398.2,426.7 401.3,426.7 401.3,432.9 398.2,432.9 398.2,436 405.9,436 405.9,423.6 	"/>
	<polygon class="st1" points="398.2,443.7 398.2,446.8 401.3,446.8 401.3,452.9 398.2,452.9 398.2,456 405.9,456 405.9,443.7 	"/>
	<polygon class="st1" points="358.1,210.7 358.1,213.7 361.2,213.7 361.2,219.9 358.1,219.9 358.1,223 365.8,223 365.8,210.7 	"/>
	<polygon class="st1" points="358.1,289.4 358.1,292.4 361.2,292.4 361.2,298.6 358.1,298.6 358.1,301.7 365.8,301.7 365.8,289.4 	
		"/>
	<polygon class="st1" points="358.1,309.4 358.1,312.5 361.2,312.5 361.2,318.7 358.1,318.7 358.1,321.8 365.8,321.8 365.8,309.4 	
		"/>
	<polygon class="st1" points="358.1,349.5 358.1,352.6 361.2,352.6 361.2,358.8 358.1,358.8 358.1,361.9 365.8,361.9 365.8,349.5 	
		"/>
	<polygon class="st1" points="358.1,406.6 358.1,409.7 361.2,409.7 361.2,415.9 358.1,415.9 358.1,419 365.8,419 365.8,406.6 	"/>
	<polygon class="st1" points="358.1,423.6 358.1,426.7 361.2,426.7 361.2,432.9 358.1,432.9 358.1,436 365.8,436 365.8,423.6 	"/>
	<rect x="438.3" y="116.5" class="st1" width="7.7" height="12.3"/>
	<rect x="438.3" y="136.6" class="st1" width="7.7" height="12.3"/>
	<rect x="435.2" y="158.2" class="st1" width="10.8" height="1.5"/>
	<rect x="435.2" y="257" class="st1" width="10.8" height="1.5"/>
	<rect x="435.2" y="273.9" class="st1" width="10.8" height="1.5"/>
	<polygon class="st1" points="438.3,172.1 438.3,175.2 441.4,175.2 441.4,181.3 438.3,181.3 438.3,184.4 446,184.4 446,172.1 	"/>
	<polygon class="st1" points="438.3,210.7 438.3,213.7 441.4,213.7 441.4,219.9 438.3,219.9 438.3,223 446,223 446,210.7 	"/>
	<polygon class="st1" points="438.3,289.4 438.3,292.4 441.4,292.4 441.4,298.6 438.3,298.6 438.3,301.7 446,301.7 446,289.4 	"/>
	<rect x="526.3" y="250.8" class="st1" width="7.7" height="12.3"/>
	<rect x="526.3" y="270.8" class="st1" width="7.7" height="12.3"/>
	<rect x="523.2" y="292.4" class="st1" width="10.8" height="1.5"/>
	<rect x="523.2" y="391.2" class="st1" width="10.8" height="1.5"/>
	<rect x="523.2" y="408.2" class="st1" width="10.8" height="1.5"/>
	<polygon class="st1" points="526.3,306.3 526.3,309.4 529.4,309.4 529.4,315.6 526.3,315.6 526.3,318.7 534,318.7 534,306.3 	"/>
	<polygon class="st1" points="526.3,344.9 526.3,348 529.4,348 529.4,354.2 526.3,354.2 526.3,357.3 534,357.3 534,344.9 	"/>
	<polygon class="st1" points="526.3,423.6 526.3,426.7 529.4,426.7 529.4,432.9 526.3,432.9 526.3,436 534,436 534,423.6 	"/>
	<rect x="551" y="116.5" class="st1" width="7.7" height="12.3"/>
	<rect x="577.2" y="113.4" class="st1" width="7.7" height="12.3"/>
	<rect x="591.1" y="113.4" class="st1" width="7.7" height="12.3"/>
	<rect x="591.1" y="150.5" class="st1" width="7.7" height="12.3"/>
	<rect x="606.5" y="132" class="st1" width="7.7" height="12.3"/>
	<rect x="606.5" y="152" class="st1" width="7.7" height="12.3"/>
	<rect x="591.1" y="190.6" class="st1" width="7.7" height="12.3"/>
	<rect x="606.5" y="210.7" class="st1" width="7.7" height="12.3"/>
	<rect x="591.1" y="286.3" class="st1" width="7.7" height="12.3"/>
	<rect x="577.2" y="210.7" class="st1" width="7.7" height="12.3"/>
	<rect x="551" y="136.6" class="st1" width="7.7" height="12.3"/>
	<rect x="551" y="329.5" class="st1" width="7.7" height="12.3"/>
	<rect x="551" y="369.6" class="st1" width="7.7" height="12.3"/>
	<rect x="551" y="389.7" class="st1" width="7.7" height="12.3"/>
	<rect x="547.9" y="158.2" class="st1" width="10.8" height="1.5"/>
	<rect x="589.6" y="176.7" class="st1" width="10.8" height="1.5"/>
	<rect x="547.9" y="257" class="st1" width="10.8" height="1.5"/>
	<rect x="547.9" y="273.9" class="st1" width="10.8" height="1.5"/>
	<rect x="589.6" y="372.7" class="st1" width="10.8" height="1.5"/>
	<rect x="577.2" y="409.7" class="st1" width="10.8" height="1.5"/>
	<polygon class="st1" points="551,172.1 551,175.2 554.1,175.2 554.1,181.3 551,181.3 551,184.4 558.7,184.4 558.7,172.1 	"/>
	<polygon class="st1" points="577.2,150.5 577.2,153.6 580.3,153.6 580.3,159.7 577.2,159.7 577.2,162.8 584.9,162.8 584.9,150.5 	
		"/>
	<polygon class="st1" points="606.5,170.5 606.5,173.6 609.6,173.6 609.6,179.8 606.5,179.8 606.5,182.9 614.3,182.9 614.3,170.5 	
		"/>
	<polygon class="st1" points="606.5,230.7 606.5,233.8 609.6,233.8 609.6,240 606.5,240 606.5,243.1 614.3,243.1 614.3,230.7 	"/>
	<polygon class="st1" points="606.5,250.8 606.5,253.9 609.6,253.9 609.6,260 606.5,260 606.5,263.1 614.3,263.1 614.3,250.8 	"/>
	<polygon class="st1" points="606.5,189 606.5,192.1 609.6,192.1 609.6,198.3 606.5,198.3 606.5,201.4 614.3,201.4 614.3,189 	"/>
	<polygon class="st1" points="591.1,132 591.1,135 594.2,135 594.2,141.2 591.1,141.2 591.1,144.3 598.8,144.3 598.8,132 	"/>
	<rect x="591.1" y="230.7" class="st1" width="7.7" height="12.3"/>
	<rect x="591.1" y="267.8" class="st1" width="7.7" height="12.3"/>
	<polygon class="st1" points="591.1,249.2 591.1,252.3 594.2,252.3 594.2,258.5 591.1,258.5 591.1,261.6 598.8,261.6 598.8,249.2 	
		"/>
	<polygon class="st1" points="577.2,170.5 577.2,173.6 580.3,173.6 580.3,179.8 577.2,179.8 577.2,182.9 584.9,182.9 584.9,170.5 	
		"/>
	<polygon class="st1" points="577.2,190.6 577.2,193.7 580.3,193.7 580.3,199.9 577.2,199.9 577.2,202.9 584.9,202.9 584.9,190.6 	
		"/>
	<rect x="577.2" y="250.8" class="st1" width="7.7" height="12.3"/>
	<polygon class="st1" points="577.2,230.7 577.2,233.8 580.3,233.8 580.3,240 577.2,240 577.2,243.1 584.9,243.1 584.9,230.7 	"/>
	<rect x="577.2" y="290.9" class="st1" width="7.7" height="12.3"/>
	<polygon class="st1" points="577.2,270.8 577.2,273.9 580.3,273.9 580.3,280.1 577.2,280.1 577.2,283.2 584.9,283.2 584.9,270.8 	
		"/>
	<rect x="577.2" y="331" class="st1" width="7.7" height="12.3"/>
	<rect x="591.1" y="327.9" class="st1" width="7.7" height="12.3"/>
	<polygon class="st1" points="577.2,311 577.2,314 580.3,314 580.3,320.2 577.2,320.2 577.2,323.3 584.9,323.3 584.9,311 	"/>
	<polygon class="st1" points="606.5,311 606.5,314 609.6,314 609.6,320.2 606.5,320.2 606.5,323.3 614.3,323.3 614.3,311 	"/>
	<rect x="685.2" y="132" class="st1" width="7.7" height="12.3"/>
	<rect x="685.2" y="152" class="st1" width="7.7" height="12.3"/>
	<rect x="685.2" y="210.7" class="st1" width="7.7" height="12.3"/>
	<polygon class="st1" points="685.2,170.5 685.2,173.6 688.3,173.6 688.3,179.8 685.2,179.8 685.2,182.9 693,182.9 693,170.5 	"/>
	<polygon class="st1" points="685.2,230.7 685.2,233.8 688.3,233.8 688.3,240 685.2,240 685.2,243.1 693,243.1 693,230.7 	"/>
	<polygon class="st1" points="685.2,250.8 685.2,253.9 688.3,253.9 688.3,260 685.2,260 685.2,263.1 693,263.1 693,250.8 	"/>
	<polygon class="st1" points="685.2,189 685.2,192.1 688.3,192.1 688.3,198.3 685.2,198.3 685.2,201.4 693,201.4 693,189 	"/>
	<polygon class="st1" points="685.2,311 685.2,314 688.3,314 688.3,320.2 685.2,320.2 685.2,323.3 693,323.3 693,311 	"/>
	<rect x="577.2" y="371.1" class="st1" width="7.7" height="12.3"/>
	<rect x="591.1" y="348" class="st1" width="7.7" height="12.3"/>
	<rect x="577.2" y="423.6" class="st1" width="7.7" height="12.3"/>
	<rect x="591.1" y="386.6" class="st1" width="7.7" height="12.3"/>
	<polygon class="st1" points="577.2,351.1 577.2,354.2 580.3,354.2 580.3,360.3 577.2,360.3 577.2,363.4 584.9,363.4 584.9,351.1 	
		"/>
	<polygon class="st1" points="577.2,445.2 577.2,448.3 580.3,448.3 580.3,454.5 577.2,454.5 577.2,457.6 584.9,457.6 584.9,445.2 	
		"/>
	<rect x="662.1" y="113.4" class="st1" width="7.7" height="12.3"/>
	<rect x="662.1" y="210.7" class="st1" width="7.7" height="12.3"/>
	<rect x="662.1" y="409.7" class="st1" width="10.8" height="1.5"/>
	<polygon class="st1" points="662.1,150.5 662.1,153.6 665.2,153.6 665.2,159.7 662.1,159.7 662.1,162.8 669.8,162.8 669.8,150.5 	
		"/>
	<polygon class="st1" points="662.1,170.5 662.1,173.6 665.2,173.6 665.2,179.8 662.1,179.8 662.1,182.9 669.8,182.9 669.8,170.5 	
		"/>
	<polygon class="st1" points="662.1,190.6 662.1,193.7 665.2,193.7 665.2,199.9 662.1,199.9 662.1,202.9 669.8,202.9 669.8,190.6 	
		"/>
	<rect x="662.1" y="250.8" class="st1" width="7.7" height="12.3"/>
	<polygon class="st1" points="662.1,230.7 662.1,233.8 665.2,233.8 665.2,240 662.1,240 662.1,243.1 669.8,243.1 669.8,230.7 	"/>
	<rect x="662.1" y="290.9" class="st1" width="7.7" height="12.3"/>
	<polygon class="st1" points="662.1,270.8 662.1,273.9 665.2,273.9 665.2,280.1 662.1,280.1 662.1,283.2 669.8,283.2 669.8,270.8 	
		"/>
	<rect x="662.1" y="331" class="st1" width="7.7" height="12.3"/>
	<polygon class="st1" points="662.1,311 662.1,314 665.2,314 665.2,320.2 662.1,320.2 662.1,323.3 669.8,323.3 669.8,311 	"/>
	<rect x="662.1" y="371.1" class="st1" width="7.7" height="12.3"/>
	<rect x="662.1" y="423.6" class="st1" width="7.7" height="12.3"/>
	<polygon class="st1" points="662.1,351.1 662.1,354.2 665.2,354.2 665.2,360.3 662.1,360.3 662.1,363.4 669.8,363.4 669.8,351.1 	
		"/>
	<polygon class="st1" points="662.1,445.2 662.1,448.3 665.2,448.3 665.2,454.5 662.1,454.5 662.1,457.6 669.8,457.6 669.8,445.2 	
		"/>
	<rect x="699.1" y="113.4" class="st1" width="7.7" height="12.3"/>
	<rect x="699.1" y="210.7" class="st1" width="7.7" height="12.3"/>
	<rect x="699.1" y="409.7" class="st1" width="10.8" height="1.5"/>
	<polygon class="st1" points="699.1,150.5 699.1,153.6 702.2,153.6 702.2,159.7 699.1,159.7 699.1,162.8 706.8,162.8 706.8,150.5 	
		"/>
	<polygon class="st1" points="699.1,170.5 699.1,173.6 702.2,173.6 702.2,179.8 699.1,179.8 699.1,182.9 706.8,182.9 706.8,170.5 	
		"/>
	<polygon class="st1" points="699.1,190.6 699.1,193.7 702.2,193.7 702.2,199.9 699.1,199.9 699.1,202.9 706.8,202.9 706.8,190.6 	
		"/>
	<rect x="699.1" y="250.8" class="st1" width="7.7" height="12.3"/>
	<polygon class="st1" points="699.1,230.7 699.1,233.8 702.2,233.8 702.2,240 699.1,240 699.1,243.1 706.8,243.1 706.8,230.7 	"/>
	<rect x="699.1" y="290.9" class="st1" width="7.7" height="12.3"/>
	<polygon class="st1" points="699.1,270.8 699.1,273.9 702.2,273.9 702.2,280.1 699.1,280.1 699.1,283.2 706.8,283.2 706.8,270.8 	
		"/>
	<rect x="699.1" y="331" class="st1" width="7.7" height="12.3"/>
	<polygon class="st1" points="699.1,311 699.1,314 702.2,314 702.2,320.2 699.1,320.2 699.1,323.3 706.8,323.3 706.8,311 	"/>
	<rect x="699.1" y="371.1" class="st1" width="7.7" height="12.3"/>
	<rect x="699.1" y="423.6" class="st1" width="7.7" height="12.3"/>
	<polygon class="st1" points="699.1,351.1 699.1,354.2 702.2,354.2 702.2,360.3 699.1,360.3 699.1,363.4 706.8,363.4 706.8,351.1 	
		"/>
	<polygon class="st1" points="699.1,445.2 699.1,448.3 702.2,448.3 702.2,454.5 699.1,454.5 699.1,457.6 706.8,457.6 706.8,445.2 	
		"/>
	<polygon class="st1" points="591.1,423.6 591.1,426.7 594.2,426.7 594.2,432.9 591.1,432.9 591.1,436 598.8,436 598.8,423.6 	"/>
	<polygon class="st1" points="591.1,443.7 591.1,446.8 594.2,446.8 594.2,452.9 591.1,452.9 591.1,456 598.8,456 598.8,443.7 	"/>
	<polygon class="st1" points="551,210.7 551,213.7 554.1,213.7 554.1,219.9 551,219.9 551,223 558.7,223 558.7,210.7 	"/>
	<polygon class="st1" points="551,289.4 551,292.4 554.1,292.4 554.1,298.6 551,298.6 551,301.7 558.7,301.7 558.7,289.4 	"/>
	<polygon class="st1" points="551,309.4 551,312.5 554.1,312.5 554.1,318.7 551,318.7 551,321.8 558.7,321.8 558.7,309.4 	"/>
	<polygon class="st1" points="551,349.5 551,352.6 554.1,352.6 554.1,358.8 551,358.8 551,361.9 558.7,361.9 558.7,349.5 	"/>
	<polygon class="st1" points="551,406.6 551,409.7 554.1,409.7 554.1,415.9 551,415.9 551,419 558.7,419 558.7,406.6 	"/>
	<polygon class="st1" points="551,423.6 551,426.7 554.1,426.7 554.1,432.9 551,432.9 551,436 558.7,436 558.7,423.6 	"/>
	<rect x="631.2" y="116.5" class="st1" width="7.7" height="12.3"/>
	<rect x="631.2" y="136.6" class="st1" width="7.7" height="12.3"/>
	<rect x="628.1" y="158.2" class="st1" width="10.8" height="1.5"/>
	<rect x="628.1" y="257" class="st1" width="10.8" height="1.5"/>
	<rect x="628.1" y="273.9" class="st1" width="10.8" height="1.5"/>
	<polygon class="st1" points="631.2,172.1 631.2,175.2 634.3,175.2 634.3,181.3 631.2,181.3 631.2,184.4 638.9,184.4 638.9,172.1 	
		"/>
	<polygon class="st1" points="631.2,210.7 631.2,213.7 634.3,213.7 634.3,219.9 631.2,219.9 631.2,223 638.9,223 638.9,210.7 	"/>
	<polygon class="st1" points="631.2,289.4 631.2,292.4 634.3,292.4 634.3,298.6 631.2,298.6 631.2,301.7 638.9,301.7 638.9,289.4 	
		"/>
	<rect x="719.2" y="250.8" class="st1" width="7.7" height="12.3"/>
	<rect x="719.2" y="270.8" class="st1" width="7.7" height="12.3"/>
	<rect x="716.1" y="292.4" class="st1" width="10.8" height="1.5"/>
	<rect x="716.1" y="391.2" class="st1" width="10.8" height="1.5"/>
	<rect x="716.1" y="408.2" class="st1" width="10.8" height="1.5"/>
	<polygon class="st1" points="719.2,306.3 719.2,309.4 722.3,309.4 722.3,315.6 719.2,315.6 719.2,318.7 726.9,318.7 726.9,306.3 	
		"/>
	<polygon class="st1" points="719.2,344.9 719.2,348 722.3,348 722.3,354.2 719.2,354.2 719.2,357.3 726.9,357.3 726.9,344.9 	"/>
	<polygon class="st1" points="719.2,423.6 719.2,426.7 722.3,426.7 722.3,432.9 719.2,432.9 719.2,436 726.9,436 726.9,423.6 	"/>
	<circle class="st1" cx="487" cy="277" r="3"/>
</g>
<g id="b8c64dc2-e86a-49bc-92bf-164106d9e7fb">
	<rect x="276.4" y="0.3" class="st2" width="611.5" height="391.6"/>
	<rect x="293.9" y="49.5" class="st1" width="576.5" height="319.3"/>
	<rect x="276.2" class="st0" width="611.5" height="26"/>
	<circle class="st1" cx="295.5" cy="13.3" r="4.8"/>
	<circle class="st1" cx="313.7" cy="13.3" r="4.8"/>
	<circle class="st1" cx="332" cy="13.3" r="4.8"/>
	<path class="st3" d="M707.3,79.4H519.6c-0.9-0.1-1.6-1-1.4-1.9c0.1-0.7,0.7-1.3,1.4-1.4h187.7c0.9,0.1,1.6,1,1.4,1.9
		C708.6,78.7,708,79.3,707.3,79.4z"/>
	<path class="st3" d="M577.2,97.5H457.9c-0.9-0.1-1.6-1-1.4-1.9c0.1-0.7,0.7-1.3,1.4-1.4h119.3c0.9,0.1,1.6,1,1.4,1.9
		C578.6,96.9,578,97.4,577.2,97.5z"/>
	<path class="st3" d="M707.3,97.9H587.9c-0.9-0.1-1.6-1-1.4-1.9c0.1-0.7,0.7-1.3,1.4-1.4h119.3c0.9,0.1,1.6,1,1.4,1.9
		C708.6,97.2,708,97.8,707.3,97.9z"/>
	<path class="st3" d="M577.5,115.7H458.2c-0.9-0.1-1.6-1-1.4-1.9c0.1-0.7,0.7-1.3,1.4-1.4h119.3c0.9,0.1,1.6,1,1.4,1.9
		C578.8,115,578.3,115.6,577.5,115.7z"/>
	<path class="st3" d="M577.8,133.9H458.5c-0.9-0.1-1.6-1-1.4-1.9c0.1-0.7,0.7-1.3,1.4-1.4h119.3c0.9,0.1,1.6,1,1.4,1.9
		C579.1,133.2,578.5,133.8,577.8,133.9z"/>
	<path class="st3" d="M632,115.7h-34.2c-0.9-0.1-1.6-1-1.4-1.9c0.1-0.7,0.7-1.3,1.4-1.4H632c0.9,0.1,1.6,1,1.4,1.9
		C633.3,115,632.7,115.6,632,115.7L632,115.7z"/>
	<path class="st3" d="M632,133.5h-34.2c-0.9-0.1-1.6-1-1.4-1.9c0.1-0.7,0.7-1.3,1.4-1.4H632c0.9,0.1,1.6,1,1.4,1.9
		C633.3,132.9,632.7,133.4,632,133.5L632,133.5z"/>
	<path class="st3" d="M689.3,133.5h-34.2c-0.9-0.1-1.6-1-1.4-1.9c0.1-0.7,0.7-1.3,1.4-1.4h34.2c0.9,0.1,1.6,1,1.4,1.9
		C690.6,132.9,690.1,133.4,689.3,133.5z"/>
	<path class="st3" d="M491.2,79.4H457c-0.9-0.1-1.6-1-1.4-1.9c0.1-0.7,0.7-1.3,1.4-1.4h34.2c0.9,0.1,1.6,1,1.4,1.9
		C492.5,78.7,491.9,79.3,491.2,79.4z"/>
	<path class="st3" d="M576.8,287.7H457.5c-0.9-0.1-1.6-1-1.4-1.9c0.1-0.7,0.7-1.3,1.4-1.4h119.3c0.9,0.1,1.6,1,1.4,1.9
		C578.1,287,577.5,287.6,576.8,287.7L576.8,287.7z"/>
	<path class="st3" d="M576.2,324H456.9c-0.9-0.1-1.6-1-1.4-1.9c0.1-0.7,0.7-1.3,1.4-1.4h119.3c0.9,0.1,1.6,1,1.4,1.9
		C577.5,323.3,577,323.9,576.2,324z"/>
	<path class="st3" d="M576.5,342.2H457.2c-0.9-0.1-1.6-1-1.4-1.9c0.1-0.7,0.7-1.3,1.4-1.4h119.3c0.9,0.1,1.6,1,1.4,1.9
		C577.8,341.5,577.2,342.1,576.5,342.2L576.5,342.2z"/>
	<path class="st3" d="M627.5,324.3h-34.2c-0.9-0.1-1.6-1-1.4-1.9c0.1-0.7,0.7-1.3,1.4-1.4h34.2c0.9,0.1,1.6,1,1.4,1.9
		C628.8,323.7,628.2,324.2,627.5,324.3L627.5,324.3z"/>
	<path class="st3" d="M627.5,342.2h-34.2c-0.9-0.1-1.6-1-1.4-1.9c0.1-0.7,0.7-1.3,1.4-1.4h34.2c0.9,0.1,1.6,1,1.4,1.9
		C628.8,341.5,628.2,342.1,627.5,342.2L627.5,342.2z"/>
	<path class="st3" d="M684.8,324.3h-34.2c-0.9-0.1-1.6-1-1.4-1.9c0.1-0.7,0.7-1.3,1.4-1.4h34.2c0.9,0.1,1.6,1,1.4,1.9
		C686.2,323.7,685.6,324.2,684.8,324.3z"/>
	<path class="st3" d="M707.4,305.8H519.7c-0.9-0.1-1.6-1-1.4-1.9c0.1-0.7,0.7-1.3,1.4-1.4h187.7c0.9,0.1,1.6,1,1.4,1.9
		C708.7,305.2,708.2,305.7,707.4,305.8z"/>
	<path class="st3" d="M491.3,305.8h-34.2c-0.9-0.1-1.6-1-1.4-1.9c0.1-0.7,0.7-1.3,1.4-1.4h34.2c0.9,0.1,1.6,1,1.4,1.9
		C492.7,305.2,492.1,305.7,491.3,305.8z"/>
	<polygon class="st2" points="548,163.2 501.6,209 548,254.7 558.4,244.3 523.3,209.3 558.7,173.9 	"/>
	<polygon class="st2" points="616.3,163.2 662.7,209 616.3,254.7 605.9,244.3 640.9,209.3 605.6,173.9 	"/>
	<polygon class="st0" points="548,163.2 501.6,209 548,254.7 558.4,244.3 523.3,209.3 558.7,173.9 	"/>
	<polygon class="st0" points="616.3,163.2 662.7,209 616.3,254.7 605.9,244.3 640.9,209.3 605.6,173.9 	"/>
</g>
</svg>
